<svg xmlns="http://www.w3.org/2000/svg" height="35.000202" width="34.941597">
  <path d="m 30.067,21.646404 c -2.842,-2.077 -3.517,-6.44 -1.351,-9.265 0.629,-0.817 1.397,-1.377 2.259,-1.96 0.908,-0.6069997 1.723,-1.4699997 2.166,-2.3799997 0.862,-1.821 0.652,-4.131 -0.675,-5.858 -1.258,-1.634 -3.261,-2.498 -5.427,-2.078 -1.025,0.187 -1.886,0.607 -2.771,1.4 -0.885,0.794 -1.118,1.634 -2.143,2.638 -1.607,1.587 -3.54,2.357 -5.846,2.217 -1.118,-0.07 -2.072,-0.35 -3.19,-0.98 -1.211,-0.677 -1.7,-1.517 -2.632,-1.727 -0.978,-0.234 -2.05,0.047 -2.702,0.793 -0.885,1.027 -0.768,1.96 -0.372,3.174 0.372,1.144 0.675,2.264 0.745,3.4779997 0.07,1.19 -0.07,2.403 -0.42,3.547 -0.628,2.1 -2.142,4.06 -3.609,5.368 -1.211,1.073 -2.05,1.237 -2.841,1.983 A 3.811,3.811 0 0 0 0,24.820404 c 0,1.96 1.397,3.594 3.237,3.921 1.444,0.28 2.818,-0.397 3.26,-0.537 3.005,-0.957 6.778,-0.84 9.503,-0.046 2.259,0.653 4.192,1.82 6.009,3.29 0.885,0.7 1.537,1.657 2.468,2.31 2.376,1.681 6.451,2.031 9.06,-1.353 1.77,-2.24 2.19,-6.184 -0.652,-8.845 -1.141,-1.073 -1.887,-1.237 -2.818,-1.914 z" fill="#ff7800" />
  <path d="m 21.476,11.019404 c -0.873,0 -1.194,0.708 -1.194,1.228 v 0.944 c -0.896,-1.251 -2.113,-2.054 -3.766,-2.054 -1.355,0 -2.504,0.566 -3.445,1.676 -0.942,1.11 -1.424,2.48 -1.424,4.039 0,1.582 0.482,2.928 1.424,4.038 0.964,1.134 2.113,1.677 3.445,1.677 1.768,0 3.008,-0.992 3.766,-2.078 v 1.015 c 0,0.45 0.367,1.181 1.194,1.181 0.827,0 1.171,-0.732 1.171,-1.228 v -9.234 c 0,-0.78 -0.666,-1.204 -1.171,-1.204 m -4.317,9.305 c -1.815,0 -3.124,-1.7 -3.124,-3.52 0,-1.936 1.332,-3.518 3.124,-3.518 1.906,0 3.123,1.771 3.123,3.519 0,1.842 -1.286,3.519 -3.123,3.519" fill="#ffffff" />
</svg>
